# xmcd
#
# Track frame offsets:
#	150
#	13727
#	27161
#	40689
#	54311
#	67784
#	81093
#	94839
#	108334
#	121768
#	135226
#	148680
#	162221
#	175761
#	189317
#	202667
#	216320
#	229735
#	243283
#	256703
#	270133
#	283593
#
# Disc length: 3958 seconds
#
# Revision: 2
# Processed by: cddbd v1.5.2PL0 Copyright (c) Steve Scherf et al.
# Submitted via: EZCDAudioConverter 3.1.7.1
#
DISCID=130f7416
DTITLE=David Walliams - Awful Auntie
DYEAR=2014
DGENRE=Books and Spoken
TTITLE0=Disc 2 Track 1
TTITLE1=Disc 2 Track 2
TTITLE2=Disc 2 Track 3
TTITLE3=Disc 2 Track 4
TTITLE4=Disc 2 Track 5
TTITLE5=Disc 2 Track 6
TTITLE6=Disc 2 Track 7
TTITLE7=Disc 2 Track 8
TTITLE8=Disc 2 Track 9
TTITLE9=Disc 2 Track 10
TTITLE10=Disc 2 Track 11
TTITLE11=Disc 2 Track 12
TTITLE12=Disc 2 Track 13
TTITLE13=Disc 2 Track 14
TTITLE14=Disc 2 Track 15
TTITLE15=Disc 2 Track 16
TTITLE16=Disc 2 Track 17
TTITLE17=Disc 2 Track 18
TTITLE18=Disc 2 Track 19
TTITLE19=Disc 2 Track 20
TTITLE20=Disc 2 Track 21
TTITLE21=Disc 2 Track 22
EXTD=
EXTT0=
EXTT1=
EXTT2=
EXTT3=
EXTT4=
EXTT5=
EXTT6=
EXTT7=
EXTT8=
EXTT9=
EXTT10=
EXTT11=
EXTT12=
EXTT13=
EXTT14=
EXTT15=
EXTT16=
EXTT17=
EXTT18=
EXTT19=
EXTT20=
EXTT21=
PLAYORDER=
